<svg width="40" height="31" viewBox="0 0 40 31" fill="none" xmlns="http://www.w3.org/2000/svg">
<g clip-path="url(#clip0_809_3959)">
<path d="M23.8517 8.11588L26.7174 7.78521C26.7174 7.78521 27.7976 -0.194758 22.1984 0.00363902C16.5992 0.202036 14.7916 7.78522 14.8577 15.677C14.9238 23.5688 15.5851 31.152 21.493 30.9977C27.4008 30.8434 26.1222 23.1279 26.1222 23.1279L23.1463 23.4365C23.1463 23.4365 24.3587 27.9997 21.6693 27.9997C18.4729 27.9997 17.503 23.9656 17.7455 15.8754C18.01 7.67499 18.3627 2.91346 22.1543 2.91346C24.2485 2.89142 23.8517 8.11588 23.8517 8.11588Z" fill="white"/>
<path d="M32.6471 30.1605L29.7593 30.1825L30.2663 0.841797L33.0439 0.863842L32.6471 30.1605Z" fill="white"/>
<path d="M30.2662 0.819824L40.0097 0.841868L39.9436 3.09037L30.2441 3.02424L30.2662 0.819824Z" fill="white"/>
<path d="M30.3762 15.7435L39.3041 15.6553L39.5466 17.9038L30.3101 17.9699L30.3762 15.7435Z" fill="white"/>
<path d="M3.06413 20.8131C3.06413 20.1518 3.06413 18.9174 3.06413 15.5446C3.06413 6.3522 3.06413 0.885254 3.06413 0.885254H0C0 0.885254 0 6.81513 0 15.743C0 18.256 0.0220421 19.7991 0.0220421 20.8572C0.0220421 25.0677 0.661323 30.1378 6.10622 30.1378C11.2866 30.1378 12.1904 26.5446 12.1904 20.8352C12.1904 19.0055 12.1904 17.8151 12.2124 15.6107L12.1904 0.907298H9.28058L9.23649 15.6107C9.23649 19.0937 9.21445 19.3803 9.21445 20.8572C9.21445 23.723 9.45693 27.8232 6.08418 27.8232C2.86573 27.8011 3.06413 22.1138 3.06413 20.8131Z" fill="white"/>
</g>
<defs>
<clipPath id="clip0_809_3959">
<rect width="40" height="31" fill="white"/>
</clipPath>
</defs>
</svg>
