<svg width="267" height="60" viewBox="0 0 267 60" fill="none" xmlns="http://www.w3.org/2000/svg">
<path d="M10.2899 29.6656C9.7357 29.8697 8.94814 29.1989 9.00648 28.4988C9.53152 21.6442 15.832 11.7852 30.0079 11.7852C52.2637 11.7852 55.0639 48.8002 23.795 49.7628C20.2656 49.8795 17.9904 49.7628 17.2029 49.7628C16.8529 49.7628 16.532 49.1211 16.5903 48.7711C17.2612 45.3 20.849 29.2572 22.3074 23.8318C23.8533 18.0273 28.812 17.0647 30.6205 17.1522C30.9705 17.1814 31.233 17.5022 31.1455 17.8814C30.2413 21.5858 26.0118 40.283 24.9034 44.7749C24.7867 45.2125 25.2243 45.6208 25.6618 45.475C28.9579 44.3958 38.5544 40.108 39.8378 30.2781C40.9462 21.7608 34.7333 16.7147 29.7746 16.8022C20.0322 16.948 19.303 23.6276 19.1572 24.6777C19.128 24.8819 18.9822 25.0569 18.8072 25.1444C16.9404 26.107 12.2442 28.9363 10.2899 29.6656Z" fill="#00FFCC"/>
<path d="M60.4601 11.2031C59.0892 11.2031 57.1932 17.4452 58.2141 19.4287C58.8558 20.683 64.9521 27.9751 66.7314 29.8711C66.9647 30.1044 66.9064 30.5711 66.6439 30.7462C62.7936 33.3713 56.4056 38.7384 51.9428 42.5011C51.272 43.0553 49.6968 40.8094 49.1718 39.8468C48.8801 39.3217 48.4718 39.4384 48.3551 40.0218C47.5967 43.7554 48.9676 49.8808 52.5262 49.9975C57.5432 50.1725 65.8271 39.3509 68.5106 35.8798C68.8607 35.4131 69.0065 35.6173 68.8898 36.2007C68.3356 38.4467 67.1689 41.9469 66.9939 43.7846C66.7022 46.7306 68.5106 49.5891 73.0318 49.5891C73.5277 49.5891 75.5111 39.2634 76.2695 35.5882C76.3862 34.9756 76.707 34.8589 76.8821 35.4715C77.9613 39.3801 81.0532 49.8808 86.3619 49.8808C90.5913 49.8808 93.2165 43.8429 93.8874 41.3927C94.0041 40.926 93.6832 41.101 93.2457 41.276C91.9914 41.7719 90.4747 42.6178 88.7245 42.2094C86.0994 41.5969 81.9866 33.313 81.1407 31.5045C81.024 31.242 81.0824 30.9503 81.3157 30.7462C84.6409 27.8293 95.1708 21.9664 96.2792 18.8162C97.446 15.4909 96.4251 11.8157 95.1708 11.7573C93.7416 11.8157 82.4824 23.6582 78.8072 27.5959C78.3988 28.0335 78.0488 27.8876 78.2238 27.3042C79.3322 23.0748 82.5116 11.5531 82.1033 11.4656C78.953 10.7948 75.1611 12.6324 73.761 16.4535C73.2651 17.6202 71.6317 25.3791 71.3692 28.0335C71.3108 28.5585 71.1067 28.6752 70.8441 28.2376C68.744 24.6499 61.6852 11.2031 60.4601 11.2031Z" fill="#00FFCC"/>
<path d="M125.302 20.6247C125.419 20.8289 125.74 20.7998 125.827 20.5664C126.352 18.9913 127.898 15.0244 127.898 14.091C127.898 13.2742 125.565 11.1741 120.489 11.4366C114.539 11.7283 106.401 17.1828 106.401 22.6957C106.401 26.6335 110.339 26.8377 110.076 27.6252C109.843 28.3836 102.346 30.3088 101.821 38.5343C101.413 44.9514 105.584 49.5601 112.468 49.5309C120.694 49.5018 124.836 45.3598 125.536 43.843C125.827 43.2013 123.698 37.1051 122.998 35.4133C122.91 35.1799 122.59 35.1799 122.473 35.3841C121.452 37.2217 120.139 44.1055 113.518 44.018C109.551 43.9889 108.501 38.8843 109.289 36.4925C109.726 35.1508 110.076 34.4215 110.572 33.6632C112.235 31.1255 115.531 29.4337 118.535 29.8129C119.439 29.9296 120.635 30.3088 121.889 29.9004C126.119 28.5295 124.106 23.8625 121.073 24.0375C118.739 24.1833 116.785 24.7667 115.735 24.5333C114.131 24.1833 113.897 23.8916 114.043 22.0832C114.218 19.7205 116.435 16.1036 120.373 16.1328C122.619 16.2203 124.573 19.3705 125.302 20.6247Z" fill="#00FFCC"/>
<path d="M191.223 20.6247C191.34 20.8289 191.661 20.7998 191.748 20.5664C192.273 18.9913 193.819 15.0244 193.819 14.091C193.819 13.2742 191.486 11.1741 186.41 11.4366C180.46 11.7283 172.322 17.1828 172.322 22.6957C172.322 26.6335 176.26 26.8377 175.997 27.6252C175.764 28.3836 168.267 30.3088 167.742 38.5343C167.334 44.9514 171.505 49.5601 178.389 49.5309C186.614 49.5018 190.756 45.3598 191.456 43.843C191.748 43.2013 189.619 37.1051 188.919 35.4133C188.831 35.1799 188.51 35.1799 188.394 35.3841C187.373 37.2217 186.06 44.1055 179.439 44.018C175.472 43.9889 174.422 38.8843 175.21 36.4925C175.647 35.1508 175.997 34.4215 176.493 33.6632C178.156 31.1255 181.452 29.4337 184.456 29.8129C185.36 29.9296 186.556 30.3088 187.81 29.9004C192.04 28.5295 190.027 23.8625 186.994 24.0375C184.66 24.1833 182.706 24.7667 181.656 24.5333C180.052 24.1833 179.818 23.8916 179.964 22.0832C180.139 19.7205 182.356 16.1036 186.294 16.1328C188.569 16.2203 190.494 19.3705 191.223 20.6247Z" fill="#00FFCC"/>
<path d="M216.513 49.526C218.029 43.1672 227.218 10.44 225.642 10.2066C223.251 9.85659 199.449 21.9616 196.853 40.2212C196.095 44.9465 197.728 49.8177 201.462 50.0219C205.779 50.2552 208.841 46.1424 207.762 46.0841H207.733C204.145 45.7341 203.883 44.0423 203.941 41.7088C204.349 29.1663 213.421 21.8449 216.425 18.6072C216.571 18.4614 216.804 18.6072 216.746 18.7822C215.229 23.6534 210.329 43.3131 210.3 45.2966C210.212 48.8551 216.25 50.7219 216.513 49.526Z" fill="#00FFCC"/>
<path d="M246.148 11.1736C235.851 10.8528 229.492 24.2121 228.384 29.8416C226.838 37.7463 228.617 49.5596 237.776 49.5596C249.736 49.5596 256.007 36.8713 257.494 28.9957C258.807 22.0827 255.482 11.4653 246.148 11.1736ZM238.943 44.4551C234.276 44.4551 236.23 31.7667 236.551 29.5499C237.485 23.3662 239.468 19.2534 242.152 16.9782C243.96 15.4323 245.798 15.1406 245.535 15.4323C245.302 15.6948 244.66 15.899 243.727 16.599C242.21 17.7366 241.189 19.1659 241.247 19.8076C241.335 20.7993 247.665 25.2621 248.86 24.7371C249.181 24.5912 248.54 23.4537 248.948 22.1994C249.152 21.5869 249.969 21.3827 249.881 22.5786C249.969 23.6579 245.973 44.4551 238.943 44.4551Z" fill="#00FFCC"/>
<path d="M142.483 23.4814C141.112 27.4484 133.003 25.5232 133.353 20.2437C133.644 15.5184 138.924 9.91797 151.029 9.91797C160.45 9.91797 168.326 15.9267 167.48 22.373C165.963 34.3322 152.283 34.0113 151.204 33.8071C149.921 32.9321 148.754 30.9778 148.841 29.9277C149.891 29.2568 159.08 28.9068 159.692 21.8771C159.896 19.602 158.03 14.935 152.137 14.9933C146.333 15.0808 141.316 17.006 141.491 20.652C141.578 22.7522 142.862 22.4022 142.483 23.4814Z" fill="#00FFCC"/>
<path d="M143.154 49.9364C142.045 50.6364 138.399 48.8571 137.699 46.7862C136.999 44.7152 143.766 20.3593 144.641 18.6676C146.071 15.8674 151.204 15.2548 151.496 16.5674C151.642 17.1799 149.863 24.2388 148.112 31.7935C146.158 40.2816 144.145 49.2947 143.154 49.9364Z" fill="#00FFCC"/>
</svg>
